<?xml version="1.0" encoding="utf-8" standalone="no"?>
<!DOCTYPE svg PUBLIC "-//W3C//DTD SVG 1.1//EN"
  "http://www.w3.org/Graphics/SVG/1.1/DTD/svg11.dtd">
<svg xmlns:xlink="http://www.w3.org/1999/xlink" width="402.802812pt" height="297.190125pt" viewBox="0 0 402.802812 297.190125" xmlns="http://www.w3.org/2000/svg" version="1.1">
 <metadata>
  <rdf:RDF xmlns:dc="http://purl.org/dc/elements/1.1/" xmlns:cc="http://creativecommons.org/ns#" xmlns:rdf="http://www.w3.org/1999/02/22-rdf-syntax-ns#">
   <cc:Work>
    <dc:type rdf:resource="http://purl.org/dc/dcmitype/StillImage"/>
    <dc:date>2023-12-14T01:55:35.107738</dc:date>
    <dc:format>image/svg+xml</dc:format>
    <dc:creator>
     <cc:Agent>
      <dc:title>Matplotlib v3.8.2, https://matplotlib.org/</dc:title>
     </cc:Agent>
    </dc:creator>
   </cc:Work>
  </rdf:RDF>
 </metadata>
 <defs>
  <style type="text/css">*{stroke-linejoin: round; stroke-linecap: butt}</style>
 </defs>
 <g id="figure_1">
  <g id="patch_1">
   <path d="M 0 297.190125 
L 402.802812 297.190125 
L 402.802812 0 
L 0 0 
z
" style="fill: #ffffff"/>
  </g>
  <g id="axes_1">
   <g id="patch_2">
    <path d="M 38.482813 273.312 
L 395.602813 273.312 
L 395.602813 7.2 
L 38.482813 7.2 
z
" style="fill: #ffffff"/>
   </g>
   <g id="PathCollection_1">
    <defs>
     <path id="m4cefc6de00" d="M 0 1.581139 
C 0.419323 1.581139 0.821528 1.41454 1.118034 1.118034 
C 1.41454 0.821528 1.581139 0.419323 1.581139 0 
C 1.581139 -0.419323 1.41454 -0.821528 1.118034 -1.118034 
C 0.821528 -1.41454 0.419323 -1.581139 0 -1.581139 
C -0.419323 -1.581139 -0.821528 -1.41454 -1.118034 -1.118034 
C -1.41454 -0.821528 -1.581139 -0.419323 -1.581139 0 
C -1.581139 0.419323 -1.41454 0.821528 -1.118034 1.118034 
C -0.821528 1.41454 -0.419323 1.581139 0 1.581139 
z
" style="stroke: #0000ff"/>
    </defs>
    <g clip-path="url(#p6a9b4774b1)">
     <use xlink:href="#m4cefc6de00" x="54.71554" y="126.704174" style="fill: #0000ff; stroke: #0000ff"/>
     <use xlink:href="#m4cefc6de00" x="57.994879" y="147.508583" style="fill: #0000ff; stroke: #0000ff"/>
     <use xlink:href="#m4cefc6de00" x="61.274217" y="122.631848" style="fill: #0000ff; stroke: #0000ff"/>
     <use xlink:href="#m4cefc6de00" x="64.553556" y="147.698396" style="fill: #0000ff; stroke: #0000ff"/>
     <use xlink:href="#m4cefc6de00" x="67.832895" y="67.810999" style="fill: #0000ff; stroke: #0000ff"/>
     <use xlink:href="#m4cefc6de00" x="71.112234" y="19.296" style="fill: #0000ff; stroke: #0000ff"/>
     <use xlink:href="#m4cefc6de00" x="74.391573" y="44.934246" style="fill: #0000ff; stroke: #0000ff"/>
     <use xlink:href="#m4cefc6de00" x="77.670912" y="138.944763" style="fill: #0000ff; stroke: #0000ff"/>
     <use xlink:href="#m4cefc6de00" x="80.950251" y="121.483457" style="fill: #0000ff; stroke: #0000ff"/>
     <use xlink:href="#m4cefc6de00" x="84.229589" y="84.094278" style="fill: #0000ff; stroke: #0000ff"/>
     <use xlink:href="#m4cefc6de00" x="87.508928" y="117.504371" style="fill: #0000ff; stroke: #0000ff"/>
     <use xlink:href="#m4cefc6de00" x="90.788267" y="45.534658" style="fill: #0000ff; stroke: #0000ff"/>
     <use xlink:href="#m4cefc6de00" x="94.067606" y="63.400097" style="fill: #0000ff; stroke: #0000ff"/>
     <use xlink:href="#m4cefc6de00" x="97.346945" y="125.605746" style="fill: #0000ff; stroke: #0000ff"/>
     <use xlink:href="#m4cefc6de00" x="100.626284" y="115.395" style="fill: #0000ff; stroke: #0000ff"/>
     <use xlink:href="#m4cefc6de00" x="103.905622" y="131.838143" style="fill: #0000ff; stroke: #0000ff"/>
     <use xlink:href="#m4cefc6de00" x="107.184961" y="109.58318" style="fill: #0000ff; stroke: #0000ff"/>
     <use xlink:href="#m4cefc6de00" x="110.4643" y="84.470374" style="fill: #0000ff; stroke: #0000ff"/>
     <use xlink:href="#m4cefc6de00" x="113.743639" y="166.641994" style="fill: #0000ff; stroke: #0000ff"/>
     <use xlink:href="#m4cefc6de00" x="117.022978" y="74.695219" style="fill: #0000ff; stroke: #0000ff"/>
     <use xlink:href="#m4cefc6de00" x="120.302317" y="189.045279" style="fill: #0000ff; stroke: #0000ff"/>
     <use xlink:href="#m4cefc6de00" x="123.581655" y="165.797872" style="fill: #0000ff; stroke: #0000ff"/>
     <use xlink:href="#m4cefc6de00" x="126.860994" y="130.275933" style="fill: #0000ff; stroke: #0000ff"/>
     <use xlink:href="#m4cefc6de00" x="130.140333" y="161.932686" style="fill: #0000ff; stroke: #0000ff"/>
     <use xlink:href="#m4cefc6de00" x="133.419672" y="106.635582" style="fill: #0000ff; stroke: #0000ff"/>
     <use xlink:href="#m4cefc6de00" x="136.699011" y="125.459276" style="fill: #0000ff; stroke: #0000ff"/>
     <use xlink:href="#m4cefc6de00" x="139.97835" y="94.282595" style="fill: #0000ff; stroke: #0000ff"/>
     <use xlink:href="#m4cefc6de00" x="143.257689" y="163.947648" style="fill: #0000ff; stroke: #0000ff"/>
     <use xlink:href="#m4cefc6de00" x="146.537027" y="187.441657" style="fill: #0000ff; stroke: #0000ff"/>
     <use xlink:href="#m4cefc6de00" x="149.816366" y="106.509209" style="fill: #0000ff; stroke: #0000ff"/>
     <use xlink:href="#m4cefc6de00" x="153.095705" y="111.382413" style="fill: #0000ff; stroke: #0000ff"/>
     <use xlink:href="#m4cefc6de00" x="156.375044" y="133.160874" style="fill: #0000ff; stroke: #0000ff"/>
     <use xlink:href="#m4cefc6de00" x="159.654383" y="87.980356" style="fill: #0000ff; stroke: #0000ff"/>
     <use xlink:href="#m4cefc6de00" x="162.933722" y="203.60529" style="fill: #0000ff; stroke: #0000ff"/>
     <use xlink:href="#m4cefc6de00" x="166.21306" y="140.571898" style="fill: #0000ff; stroke: #0000ff"/>
     <use xlink:href="#m4cefc6de00" x="169.492399" y="121.464903" style="fill: #0000ff; stroke: #0000ff"/>
     <use xlink:href="#m4cefc6de00" x="172.771738" y="109.945971" style="fill: #0000ff; stroke: #0000ff"/>
     <use xlink:href="#m4cefc6de00" x="176.051077" y="90.200001" style="fill: #0000ff; stroke: #0000ff"/>
     <use xlink:href="#m4cefc6de00" x="179.330416" y="92.12591" style="fill: #0000ff; stroke: #0000ff"/>
     <use xlink:href="#m4cefc6de00" x="182.609755" y="122.612864" style="fill: #0000ff; stroke: #0000ff"/>
     <use xlink:href="#m4cefc6de00" x="185.889093" y="108.52338" style="fill: #0000ff; stroke: #0000ff"/>
     <use xlink:href="#m4cefc6de00" x="189.168432" y="91.019854" style="fill: #0000ff; stroke: #0000ff"/>
     <use xlink:href="#m4cefc6de00" x="192.447771" y="76.018883" style="fill: #0000ff; stroke: #0000ff"/>
     <use xlink:href="#m4cefc6de00" x="195.72711" y="64.733859" style="fill: #0000ff; stroke: #0000ff"/>
     <use xlink:href="#m4cefc6de00" x="199.006449" y="106.888533" style="fill: #0000ff; stroke: #0000ff"/>
     <use xlink:href="#m4cefc6de00" x="202.285788" y="142.160983" style="fill: #0000ff; stroke: #0000ff"/>
     <use xlink:href="#m4cefc6de00" x="205.565127" y="107.324294" style="fill: #0000ff; stroke: #0000ff"/>
     <use xlink:href="#m4cefc6de00" x="208.844465" y="78.469235" style="fill: #0000ff; stroke: #0000ff"/>
     <use xlink:href="#m4cefc6de00" x="212.123804" y="157.135571" style="fill: #0000ff; stroke: #0000ff"/>
     <use xlink:href="#m4cefc6de00" x="215.403143" y="103.305786" style="fill: #0000ff; stroke: #0000ff"/>
     <use xlink:href="#m4cefc6de00" x="218.682482" y="177.312928" style="fill: #0000ff; stroke: #0000ff"/>
     <use xlink:href="#m4cefc6de00" x="221.961821" y="127.532339" style="fill: #0000ff; stroke: #0000ff"/>
     <use xlink:href="#m4cefc6de00" x="225.24116" y="144.760463" style="fill: #0000ff; stroke: #0000ff"/>
     <use xlink:href="#m4cefc6de00" x="228.520498" y="60.012047" style="fill: #0000ff; stroke: #0000ff"/>
     <use xlink:href="#m4cefc6de00" x="231.799837" y="130.859376" style="fill: #0000ff; stroke: #0000ff"/>
     <use xlink:href="#m4cefc6de00" x="235.079176" y="170.99262" style="fill: #0000ff; stroke: #0000ff"/>
     <use xlink:href="#m4cefc6de00" x="238.358515" y="155.568523" style="fill: #0000ff; stroke: #0000ff"/>
     <use xlink:href="#m4cefc6de00" x="241.637854" y="83.005212" style="fill: #0000ff; stroke: #0000ff"/>
     <use xlink:href="#m4cefc6de00" x="244.917193" y="108.493506" style="fill: #0000ff; stroke: #0000ff"/>
     <use xlink:href="#m4cefc6de00" x="248.196532" y="261.216" style="fill: #0000ff; stroke: #0000ff"/>
     <use xlink:href="#m4cefc6de00" x="251.47587" y="173.646833" style="fill: #0000ff; stroke: #0000ff"/>
     <use xlink:href="#m4cefc6de00" x="254.755209" y="107.522864" style="fill: #0000ff; stroke: #0000ff"/>
     <use xlink:href="#m4cefc6de00" x="258.034548" y="112.045432" style="fill: #0000ff; stroke: #0000ff"/>
     <use xlink:href="#m4cefc6de00" x="261.313887" y="103.442229" style="fill: #0000ff; stroke: #0000ff"/>
     <use xlink:href="#m4cefc6de00" x="264.593226" y="108.84334" style="fill: #0000ff; stroke: #0000ff"/>
     <use xlink:href="#m4cefc6de00" x="267.872565" y="150.729153" style="fill: #0000ff; stroke: #0000ff"/>
     <use xlink:href="#m4cefc6de00" x="271.151903" y="108.069561" style="fill: #0000ff; stroke: #0000ff"/>
     <use xlink:href="#m4cefc6de00" x="274.431242" y="66.340812" style="fill: #0000ff; stroke: #0000ff"/>
     <use xlink:href="#m4cefc6de00" x="277.710581" y="153.736427" style="fill: #0000ff; stroke: #0000ff"/>
     <use xlink:href="#m4cefc6de00" x="280.98992" y="123.148824" style="fill: #0000ff; stroke: #0000ff"/>
     <use xlink:href="#m4cefc6de00" x="284.269259" y="84.812126" style="fill: #0000ff; stroke: #0000ff"/>
     <use xlink:href="#m4cefc6de00" x="287.548598" y="133.456271" style="fill: #0000ff; stroke: #0000ff"/>
     <use xlink:href="#m4cefc6de00" x="290.827936" y="94.165086" style="fill: #0000ff; stroke: #0000ff"/>
     <use xlink:href="#m4cefc6de00" x="294.107275" y="114.03931" style="fill: #0000ff; stroke: #0000ff"/>
     <use xlink:href="#m4cefc6de00" x="297.386614" y="113.162746" style="fill: #0000ff; stroke: #0000ff"/>
     <use xlink:href="#m4cefc6de00" x="300.665953" y="149.312127" style="fill: #0000ff; stroke: #0000ff"/>
     <use xlink:href="#m4cefc6de00" x="303.945292" y="125.209579" style="fill: #0000ff; stroke: #0000ff"/>
     <use xlink:href="#m4cefc6de00" x="307.224631" y="144.890409" style="fill: #0000ff; stroke: #0000ff"/>
     <use xlink:href="#m4cefc6de00" x="310.50397" y="131.684606" style="fill: #0000ff; stroke: #0000ff"/>
     <use xlink:href="#m4cefc6de00" x="313.783308" y="151.907787" style="fill: #0000ff; stroke: #0000ff"/>
     <use xlink:href="#m4cefc6de00" x="317.062647" y="124.49859" style="fill: #0000ff; stroke: #0000ff"/>
     <use xlink:href="#m4cefc6de00" x="320.341986" y="100.456991" style="fill: #0000ff; stroke: #0000ff"/>
     <use xlink:href="#m4cefc6de00" x="323.621325" y="199.772764" style="fill: #0000ff; stroke: #0000ff"/>
     <use xlink:href="#m4cefc6de00" x="326.900664" y="152.398785" style="fill: #0000ff; stroke: #0000ff"/>
     <use xlink:href="#m4cefc6de00" x="330.180003" y="154.887565" style="fill: #0000ff; stroke: #0000ff"/>
     <use xlink:href="#m4cefc6de00" x="333.459341" y="156.159193" style="fill: #0000ff; stroke: #0000ff"/>
     <use xlink:href="#m4cefc6de00" x="336.73868" y="125.056078" style="fill: #0000ff; stroke: #0000ff"/>
     <use xlink:href="#m4cefc6de00" x="340.018019" y="151.429132" style="fill: #0000ff; stroke: #0000ff"/>
     <use xlink:href="#m4cefc6de00" x="343.297358" y="177.207977" style="fill: #0000ff; stroke: #0000ff"/>
     <use xlink:href="#m4cefc6de00" x="346.576697" y="115.375268" style="fill: #0000ff; stroke: #0000ff"/>
     <use xlink:href="#m4cefc6de00" x="349.856036" y="173.194498" style="fill: #0000ff; stroke: #0000ff"/>
     <use xlink:href="#m4cefc6de00" x="353.135374" y="132.411658" style="fill: #0000ff; stroke: #0000ff"/>
     <use xlink:href="#m4cefc6de00" x="356.414713" y="180.270019" style="fill: #0000ff; stroke: #0000ff"/>
     <use xlink:href="#m4cefc6de00" x="359.694052" y="123.101222" style="fill: #0000ff; stroke: #0000ff"/>
     <use xlink:href="#m4cefc6de00" x="362.973391" y="164.622691" style="fill: #0000ff; stroke: #0000ff"/>
     <use xlink:href="#m4cefc6de00" x="366.25273" y="156.543755" style="fill: #0000ff; stroke: #0000ff"/>
     <use xlink:href="#m4cefc6de00" x="369.532069" y="152.091616" style="fill: #0000ff; stroke: #0000ff"/>
     <use xlink:href="#m4cefc6de00" x="372.811408" y="129.525935" style="fill: #0000ff; stroke: #0000ff"/>
     <use xlink:href="#m4cefc6de00" x="376.090746" y="89.660566" style="fill: #0000ff; stroke: #0000ff"/>
     <use xlink:href="#m4cefc6de00" x="379.370085" y="117.550846" style="fill: #0000ff; stroke: #0000ff"/>
    </g>
   </g>
   <g id="matplotlib.axis_1">
    <g id="xtick_1">
     <g id="line2d_1">
      <path d="M 54.71554 273.312 
L 54.71554 7.2 
" clip-path="url(#p6a9b4774b1)" style="fill: none; stroke-dasharray: 0.8,1.32; stroke-dashoffset: 0; stroke: #b0b0b0; stroke-width: 0.8"/>
     </g>
     <g id="line2d_2">
      <defs>
       <path id="m08a1bf1b6d" d="M 0 0 
L 0 3.5 
" style="stroke: #000000; stroke-width: 0.8"/>
      </defs>
      <g>
       <use xlink:href="#m08a1bf1b6d" x="54.71554" y="273.312" style="stroke: #000000; stroke-width: 0.8"/>
      </g>
     </g>
     <g id="text_1">
      <!-- 0.0 -->
      <g transform="translate(46.763977 287.910437) scale(0.1 -0.1)">
       <defs>
        <path id="DejaVuSans-30" d="M 2034 4250 
Q 1547 4250 1301 3770 
Q 1056 3291 1056 2328 
Q 1056 1369 1301 889 
Q 1547 409 2034 409 
Q 2525 409 2770 889 
Q 3016 1369 3016 2328 
Q 3016 3291 2770 3770 
Q 2525 4250 2034 4250 
z
M 2034 4750 
Q 2819 4750 3233 4129 
Q 3647 3509 3647 2328 
Q 3647 1150 3233 529 
Q 2819 -91 2034 -91 
Q 1250 -91 836 529 
Q 422 1150 422 2328 
Q 422 3509 836 4129 
Q 1250 4750 2034 4750 
z
" transform="scale(0.015625)"/>
        <path id="DejaVuSans-2e" d="M 684 794 
L 1344 794 
L 1344 0 
L 684 0 
L 684 794 
z
" transform="scale(0.015625)"/>
       </defs>
       <use xlink:href="#DejaVuSans-30"/>
       <use xlink:href="#DejaVuSans-2e" x="63.623047"/>
       <use xlink:href="#DejaVuSans-30" x="95.410156"/>
      </g>
     </g>
    </g>
    <g id="xtick_2">
     <g id="line2d_3">
      <path d="M 120.302317 273.312 
L 120.302317 7.2 
" clip-path="url(#p6a9b4774b1)" style="fill: none; stroke-dasharray: 0.8,1.32; stroke-dashoffset: 0; stroke: #b0b0b0; stroke-width: 0.8"/>
     </g>
     <g id="line2d_4">
      <g>
       <use xlink:href="#m08a1bf1b6d" x="120.302317" y="273.312" style="stroke: #000000; stroke-width: 0.8"/>
      </g>
     </g>
     <g id="text_2">
      <!-- 0.2 -->
      <g transform="translate(112.350754 287.910437) scale(0.1 -0.1)">
       <defs>
        <path id="DejaVuSans-32" d="M 1228 531 
L 3431 531 
L 3431 0 
L 469 0 
L 469 531 
Q 828 903 1448 1529 
Q 2069 2156 2228 2338 
Q 2531 2678 2651 2914 
Q 2772 3150 2772 3378 
Q 2772 3750 2511 3984 
Q 2250 4219 1831 4219 
Q 1534 4219 1204 4116 
Q 875 4013 500 3803 
L 500 4441 
Q 881 4594 1212 4672 
Q 1544 4750 1819 4750 
Q 2544 4750 2975 4387 
Q 3406 4025 3406 3419 
Q 3406 3131 3298 2873 
Q 3191 2616 2906 2266 
Q 2828 2175 2409 1742 
Q 1991 1309 1228 531 
z
" transform="scale(0.015625)"/>
       </defs>
       <use xlink:href="#DejaVuSans-30"/>
       <use xlink:href="#DejaVuSans-2e" x="63.623047"/>
       <use xlink:href="#DejaVuSans-32" x="95.410156"/>
      </g>
     </g>
    </g>
    <g id="xtick_3">
     <g id="line2d_5">
      <path d="M 185.889093 273.312 
L 185.889093 7.2 
" clip-path="url(#p6a9b4774b1)" style="fill: none; stroke-dasharray: 0.8,1.32; stroke-dashoffset: 0; stroke: #b0b0b0; stroke-width: 0.8"/>
     </g>
     <g id="line2d_6">
      <g>
       <use xlink:href="#m08a1bf1b6d" x="185.889093" y="273.312" style="stroke: #000000; stroke-width: 0.8"/>
      </g>
     </g>
     <g id="text_3">
      <!-- 0.4 -->
      <g transform="translate(177.937531 287.910437) scale(0.1 -0.1)">
       <defs>
        <path id="DejaVuSans-34" d="M 2419 4116 
L 825 1625 
L 2419 1625 
L 2419 4116 
z
M 2253 4666 
L 3047 4666 
L 3047 1625 
L 3713 1625 
L 3713 1100 
L 3047 1100 
L 3047 0 
L 2419 0 
L 2419 1100 
L 313 1100 
L 313 1709 
L 2253 4666 
z
" transform="scale(0.015625)"/>
       </defs>
       <use xlink:href="#DejaVuSans-30"/>
       <use xlink:href="#DejaVuSans-2e" x="63.623047"/>
       <use xlink:href="#DejaVuSans-34" x="95.410156"/>
      </g>
     </g>
    </g>
    <g id="xtick_4">
     <g id="line2d_7">
      <path d="M 251.47587 273.312 
L 251.47587 7.2 
" clip-path="url(#p6a9b4774b1)" style="fill: none; stroke-dasharray: 0.8,1.32; stroke-dashoffset: 0; stroke: #b0b0b0; stroke-width: 0.8"/>
     </g>
     <g id="line2d_8">
      <g>
       <use xlink:href="#m08a1bf1b6d" x="251.47587" y="273.312" style="stroke: #000000; stroke-width: 0.8"/>
      </g>
     </g>
     <g id="text_4">
      <!-- 0.6 -->
      <g transform="translate(243.524308 287.910437) scale(0.1 -0.1)">
       <defs>
        <path id="DejaVuSans-36" d="M 2113 2584 
Q 1688 2584 1439 2293 
Q 1191 2003 1191 1497 
Q 1191 994 1439 701 
Q 1688 409 2113 409 
Q 2538 409 2786 701 
Q 3034 994 3034 1497 
Q 3034 2003 2786 2293 
Q 2538 2584 2113 2584 
z
M 3366 4563 
L 3366 3988 
Q 3128 4100 2886 4159 
Q 2644 4219 2406 4219 
Q 1781 4219 1451 3797 
Q 1122 3375 1075 2522 
Q 1259 2794 1537 2939 
Q 1816 3084 2150 3084 
Q 2853 3084 3261 2657 
Q 3669 2231 3669 1497 
Q 3669 778 3244 343 
Q 2819 -91 2113 -91 
Q 1303 -91 875 529 
Q 447 1150 447 2328 
Q 447 3434 972 4092 
Q 1497 4750 2381 4750 
Q 2619 4750 2861 4703 
Q 3103 4656 3366 4563 
z
" transform="scale(0.015625)"/>
       </defs>
       <use xlink:href="#DejaVuSans-30"/>
       <use xlink:href="#DejaVuSans-2e" x="63.623047"/>
       <use xlink:href="#DejaVuSans-36" x="95.410156"/>
      </g>
     </g>
    </g>
    <g id="xtick_5">
     <g id="line2d_9">
      <path d="M 317.062647 273.312 
L 317.062647 7.2 
" clip-path="url(#p6a9b4774b1)" style="fill: none; stroke-dasharray: 0.8,1.32; stroke-dashoffset: 0; stroke: #b0b0b0; stroke-width: 0.8"/>
     </g>
     <g id="line2d_10">
      <g>
       <use xlink:href="#m08a1bf1b6d" x="317.062647" y="273.312" style="stroke: #000000; stroke-width: 0.8"/>
      </g>
     </g>
     <g id="text_5">
      <!-- 0.8 -->
      <g transform="translate(309.111085 287.910437) scale(0.1 -0.1)">
       <defs>
        <path id="DejaVuSans-38" d="M 2034 2216 
Q 1584 2216 1326 1975 
Q 1069 1734 1069 1313 
Q 1069 891 1326 650 
Q 1584 409 2034 409 
Q 2484 409 2743 651 
Q 3003 894 3003 1313 
Q 3003 1734 2745 1975 
Q 2488 2216 2034 2216 
z
M 1403 2484 
Q 997 2584 770 2862 
Q 544 3141 544 3541 
Q 544 4100 942 4425 
Q 1341 4750 2034 4750 
Q 2731 4750 3128 4425 
Q 3525 4100 3525 3541 
Q 3525 3141 3298 2862 
Q 3072 2584 2669 2484 
Q 3125 2378 3379 2068 
Q 3634 1759 3634 1313 
Q 3634 634 3220 271 
Q 2806 -91 2034 -91 
Q 1263 -91 848 271 
Q 434 634 434 1313 
Q 434 1759 690 2068 
Q 947 2378 1403 2484 
z
M 1172 3481 
Q 1172 3119 1398 2916 
Q 1625 2713 2034 2713 
Q 2441 2713 2670 2916 
Q 2900 3119 2900 3481 
Q 2900 3844 2670 4047 
Q 2441 4250 2034 4250 
Q 1625 4250 1398 4047 
Q 1172 3844 1172 3481 
z
" transform="scale(0.015625)"/>
       </defs>
       <use xlink:href="#DejaVuSans-30"/>
       <use xlink:href="#DejaVuSans-2e" x="63.623047"/>
       <use xlink:href="#DejaVuSans-38" x="95.410156"/>
      </g>
     </g>
    </g>
    <g id="xtick_6">
     <g id="line2d_11">
      <path d="M 382.649424 273.312 
L 382.649424 7.2 
" clip-path="url(#p6a9b4774b1)" style="fill: none; stroke-dasharray: 0.8,1.32; stroke-dashoffset: 0; stroke: #b0b0b0; stroke-width: 0.8"/>
     </g>
     <g id="line2d_12">
      <g>
       <use xlink:href="#m08a1bf1b6d" x="382.649424" y="273.312" style="stroke: #000000; stroke-width: 0.8"/>
      </g>
     </g>
     <g id="text_6">
      <!-- 1.0 -->
      <g transform="translate(374.697862 287.910437) scale(0.1 -0.1)">
       <defs>
        <path id="DejaVuSans-31" d="M 794 531 
L 1825 531 
L 1825 4091 
L 703 3866 
L 703 4441 
L 1819 4666 
L 2450 4666 
L 2450 531 
L 3481 531 
L 3481 0 
L 794 0 
L 794 531 
z
" transform="scale(0.015625)"/>
       </defs>
       <use xlink:href="#DejaVuSans-31"/>
       <use xlink:href="#DejaVuSans-2e" x="63.623047"/>
       <use xlink:href="#DejaVuSans-30" x="95.410156"/>
      </g>
     </g>
    </g>
   </g>
   <g id="matplotlib.axis_2">
    <g id="ytick_1">
     <g id="line2d_13">
      <path d="M 38.482813 268.018888 
L 395.602813 268.018888 
" clip-path="url(#p6a9b4774b1)" style="fill: none; stroke-dasharray: 0.8,1.32; stroke-dashoffset: 0; stroke: #b0b0b0; stroke-width: 0.8"/>
     </g>
     <g id="line2d_14">
      <defs>
       <path id="m1236042c54" d="M 0 0 
L -3.5 0 
" style="stroke: #000000; stroke-width: 0.8"/>
      </defs>
      <g>
       <use xlink:href="#m1236042c54" x="38.482813" y="268.018888" style="stroke: #000000; stroke-width: 0.8"/>
      </g>
     </g>
     <g id="text_7">
      <!-- −0.5 -->
      <g transform="translate(7.2 271.818107) scale(0.1 -0.1)">
       <defs>
        <path id="DejaVuSans-2212" d="M 678 2272 
L 4684 2272 
L 4684 1741 
L 678 1741 
L 678 2272 
z
" transform="scale(0.015625)"/>
        <path id="DejaVuSans-35" d="M 691 4666 
L 3169 4666 
L 3169 4134 
L 1269 4134 
L 1269 2991 
Q 1406 3038 1543 3061 
Q 1681 3084 1819 3084 
Q 2600 3084 3056 2656 
Q 3513 2228 3513 1497 
Q 3513 744 3044 326 
Q 2575 -91 1722 -91 
Q 1428 -91 1123 -41 
Q 819 9 494 109 
L 494 744 
Q 775 591 1075 516 
Q 1375 441 1709 441 
Q 2250 441 2565 725 
Q 2881 1009 2881 1497 
Q 2881 1984 2565 2268 
Q 2250 2553 1709 2553 
Q 1456 2553 1204 2497 
Q 953 2441 691 2322 
L 691 4666 
z
" transform="scale(0.015625)"/>
       </defs>
       <use xlink:href="#DejaVuSans-2212"/>
       <use xlink:href="#DejaVuSans-30" x="83.789062"/>
       <use xlink:href="#DejaVuSans-2e" x="147.412109"/>
       <use xlink:href="#DejaVuSans-35" x="179.199219"/>
      </g>
     </g>
    </g>
    <g id="ytick_2">
     <g id="line2d_15">
      <path d="M 38.482813 230.746706 
L 395.602813 230.746706 
" clip-path="url(#p6a9b4774b1)" style="fill: none; stroke-dasharray: 0.8,1.32; stroke-dashoffset: 0; stroke: #b0b0b0; stroke-width: 0.8"/>
     </g>
     <g id="line2d_16">
      <g>
       <use xlink:href="#m1236042c54" x="38.482813" y="230.746706" style="stroke: #000000; stroke-width: 0.8"/>
      </g>
     </g>
     <g id="text_8">
      <!-- 0.0 -->
      <g transform="translate(15.579688 234.545925) scale(0.1 -0.1)">
       <use xlink:href="#DejaVuSans-30"/>
       <use xlink:href="#DejaVuSans-2e" x="63.623047"/>
       <use xlink:href="#DejaVuSans-30" x="95.410156"/>
      </g>
     </g>
    </g>
    <g id="ytick_3">
     <g id="line2d_17">
      <path d="M 38.482813 193.474524 
L 395.602813 193.474524 
" clip-path="url(#p6a9b4774b1)" style="fill: none; stroke-dasharray: 0.8,1.32; stroke-dashoffset: 0; stroke: #b0b0b0; stroke-width: 0.8"/>
     </g>
     <g id="line2d_18">
      <g>
       <use xlink:href="#m1236042c54" x="38.482813" y="193.474524" style="stroke: #000000; stroke-width: 0.8"/>
      </g>
     </g>
     <g id="text_9">
      <!-- 0.5 -->
      <g transform="translate(15.579688 197.273743) scale(0.1 -0.1)">
       <use xlink:href="#DejaVuSans-30"/>
       <use xlink:href="#DejaVuSans-2e" x="63.623047"/>
       <use xlink:href="#DejaVuSans-35" x="95.410156"/>
      </g>
     </g>
    </g>
    <g id="ytick_4">
     <g id="line2d_19">
      <path d="M 38.482813 156.202342 
L 395.602813 156.202342 
" clip-path="url(#p6a9b4774b1)" style="fill: none; stroke-dasharray: 0.8,1.32; stroke-dashoffset: 0; stroke: #b0b0b0; stroke-width: 0.8"/>
     </g>
     <g id="line2d_20">
      <g>
       <use xlink:href="#m1236042c54" x="38.482813" y="156.202342" style="stroke: #000000; stroke-width: 0.8"/>
      </g>
     </g>
     <g id="text_10">
      <!-- 1.0 -->
      <g transform="translate(15.579688 160.001561) scale(0.1 -0.1)">
       <use xlink:href="#DejaVuSans-31"/>
       <use xlink:href="#DejaVuSans-2e" x="63.623047"/>
       <use xlink:href="#DejaVuSans-30" x="95.410156"/>
      </g>
     </g>
    </g>
    <g id="ytick_5">
     <g id="line2d_21">
      <path d="M 38.482813 118.93016 
L 395.602813 118.93016 
" clip-path="url(#p6a9b4774b1)" style="fill: none; stroke-dasharray: 0.8,1.32; stroke-dashoffset: 0; stroke: #b0b0b0; stroke-width: 0.8"/>
     </g>
     <g id="line2d_22">
      <g>
       <use xlink:href="#m1236042c54" x="38.482813" y="118.93016" style="stroke: #000000; stroke-width: 0.8"/>
      </g>
     </g>
     <g id="text_11">
      <!-- 1.5 -->
      <g transform="translate(15.579688 122.729379) scale(0.1 -0.1)">
       <use xlink:href="#DejaVuSans-31"/>
       <use xlink:href="#DejaVuSans-2e" x="63.623047"/>
       <use xlink:href="#DejaVuSans-35" x="95.410156"/>
      </g>
     </g>
    </g>
    <g id="ytick_6">
     <g id="line2d_23">
      <path d="M 38.482813 81.657978 
L 395.602813 81.657978 
" clip-path="url(#p6a9b4774b1)" style="fill: none; stroke-dasharray: 0.8,1.32; stroke-dashoffset: 0; stroke: #b0b0b0; stroke-width: 0.8"/>
     </g>
     <g id="line2d_24">
      <g>
       <use xlink:href="#m1236042c54" x="38.482813" y="81.657978" style="stroke: #000000; stroke-width: 0.8"/>
      </g>
     </g>
     <g id="text_12">
      <!-- 2.0 -->
      <g transform="translate(15.579688 85.457197) scale(0.1 -0.1)">
       <use xlink:href="#DejaVuSans-32"/>
       <use xlink:href="#DejaVuSans-2e" x="63.623047"/>
       <use xlink:href="#DejaVuSans-30" x="95.410156"/>
      </g>
     </g>
    </g>
    <g id="ytick_7">
     <g id="line2d_25">
      <path d="M 38.482813 44.385796 
L 395.602813 44.385796 
" clip-path="url(#p6a9b4774b1)" style="fill: none; stroke-dasharray: 0.8,1.32; stroke-dashoffset: 0; stroke: #b0b0b0; stroke-width: 0.8"/>
     </g>
     <g id="line2d_26">
      <g>
       <use xlink:href="#m1236042c54" x="38.482813" y="44.385796" style="stroke: #000000; stroke-width: 0.8"/>
      </g>
     </g>
     <g id="text_13">
      <!-- 2.5 -->
      <g transform="translate(15.579688 48.185015) scale(0.1 -0.1)">
       <use xlink:href="#DejaVuSans-32"/>
       <use xlink:href="#DejaVuSans-2e" x="63.623047"/>
       <use xlink:href="#DejaVuSans-35" x="95.410156"/>
      </g>
     </g>
    </g>
   </g>
   <g id="line2d_27">
    <path d="M 54.71554 104.021288 
L 57.994879 104.394009 
L 61.274217 104.766731 
L 64.553556 105.139453 
L 67.832895 105.512175 
L 71.112234 105.884897 
L 74.391573 106.257618 
L 77.670912 106.63034 
L 80.950251 107.003062 
L 84.229589 107.375784 
L 87.508928 107.748506 
L 90.788267 108.121228 
L 94.067606 108.493949 
L 97.346945 108.866671 
L 100.626284 109.239393 
L 103.905622 109.612115 
L 107.184961 109.984837 
L 110.4643 110.357558 
L 113.743639 110.73028 
L 117.022978 111.103002 
L 120.302317 111.475724 
L 123.581655 111.848446 
L 126.860994 112.221168 
L 130.140333 112.593889 
L 133.419672 112.966611 
L 136.699011 113.339333 
L 139.97835 113.712055 
L 143.257689 114.084777 
L 146.537027 114.457498 
L 149.816366 114.83022 
L 153.095705 115.202942 
L 156.375044 115.575664 
L 159.654383 115.948386 
L 162.933722 116.321108 
L 166.21306 116.693829 
L 169.492399 117.066551 
L 172.771738 117.439273 
L 176.051077 117.811995 
L 179.330416 118.184717 
L 182.609755 118.557438 
L 185.889093 118.93016 
L 189.168432 119.302882 
L 192.447771 119.675604 
L 195.72711 120.048326 
L 199.006449 120.421048 
L 202.285788 120.793769 
L 205.565127 121.166491 
L 208.844465 121.539213 
L 212.123804 121.911935 
L 215.403143 122.284657 
L 218.682482 122.657378 
L 221.961821 123.0301 
L 225.24116 123.402822 
L 228.520498 123.775544 
L 231.799837 124.148266 
L 235.079176 124.520988 
L 238.358515 124.893709 
L 241.637854 125.266431 
L 244.917193 125.639153 
L 248.196532 126.011875 
L 251.47587 126.384597 
L 254.755209 126.757319 
L 258.034548 127.13004 
L 261.313887 127.502762 
L 264.593226 127.875484 
L 267.872565 128.248206 
L 271.151903 128.620928 
L 274.431242 128.993649 
L 277.710581 129.366371 
L 280.98992 129.739093 
L 284.269259 130.111815 
L 287.548598 130.484537 
L 290.827936 130.857259 
L 294.107275 131.22998 
L 297.386614 131.602702 
L 300.665953 131.975424 
L 303.945292 132.348146 
L 307.224631 132.720868 
L 310.50397 133.093589 
L 313.783308 133.466311 
L 317.062647 133.839033 
L 320.341986 134.211755 
L 323.621325 134.584477 
L 326.900664 134.957199 
L 330.180003 135.32992 
L 333.459341 135.702642 
L 336.73868 136.075364 
L 340.018019 136.448086 
L 343.297358 136.820808 
L 346.576697 137.193529 
L 349.856036 137.566251 
L 353.135374 137.938973 
L 356.414713 138.311695 
L 359.694052 138.684417 
L 362.973391 139.057139 
L 366.25273 139.42986 
L 369.532069 139.802582 
L 372.811408 140.175304 
L 376.090746 140.548026 
L 379.370085 140.920748 
" clip-path="url(#p6a9b4774b1)" style="fill: none; stroke: #ff0000; stroke-width: 2; stroke-linecap: square"/>
   </g>
   <g id="patch_3">
    <path d="M 38.482813 273.312 
L 38.482813 7.2 
" style="fill: none; stroke: #000000; stroke-width: 0.8; stroke-linejoin: miter; stroke-linecap: square"/>
   </g>
   <g id="patch_4">
    <path d="M 395.602813 273.312 
L 395.602813 7.2 
" style="fill: none; stroke: #000000; stroke-width: 0.8; stroke-linejoin: miter; stroke-linecap: square"/>
   </g>
   <g id="patch_5">
    <path d="M 38.482813 273.312 
L 395.602813 273.312 
" style="fill: none; stroke: #000000; stroke-width: 0.8; stroke-linejoin: miter; stroke-linecap: square"/>
   </g>
   <g id="patch_6">
    <path d="M 38.482813 7.2 
L 395.602813 7.2 
" style="fill: none; stroke: #000000; stroke-width: 0.8; stroke-linejoin: miter; stroke-linecap: square"/>
   </g>
   <g id="legend_1">
    <g id="patch_7">
     <path d="M 292.021563 44.55625 
L 388.602813 44.55625 
Q 390.602813 44.55625 390.602813 42.55625 
L 390.602813 14.2 
Q 390.602813 12.2 388.602813 12.2 
L 292.021563 12.2 
Q 290.021563 12.2 290.021563 14.2 
L 290.021563 42.55625 
Q 290.021563 44.55625 292.021563 44.55625 
z
" style="fill: #ffffff; opacity: 0.8; stroke: #cccccc; stroke-linejoin: miter"/>
    </g>
    <g id="line2d_28">
     <path d="M 294.021563 20.298437 
L 304.021563 20.298437 
L 314.021563 20.298437 
" style="fill: none; stroke: #ff0000; stroke-width: 2; stroke-linecap: square"/>
    </g>
    <g id="text_14">
     <!-- Ground truth -->
     <g transform="translate(322.021563 23.798437) scale(0.1 -0.1)">
      <defs>
       <path id="DejaVuSans-47" d="M 3809 666 
L 3809 1919 
L 2778 1919 
L 2778 2438 
L 4434 2438 
L 4434 434 
Q 4069 175 3628 42 
Q 3188 -91 2688 -91 
Q 1594 -91 976 548 
Q 359 1188 359 2328 
Q 359 3472 976 4111 
Q 1594 4750 2688 4750 
Q 3144 4750 3555 4637 
Q 3966 4525 4313 4306 
L 4313 3634 
Q 3963 3931 3569 4081 
Q 3175 4231 2741 4231 
Q 1884 4231 1454 3753 
Q 1025 3275 1025 2328 
Q 1025 1384 1454 906 
Q 1884 428 2741 428 
Q 3075 428 3337 486 
Q 3600 544 3809 666 
z
" transform="scale(0.015625)"/>
       <path id="DejaVuSans-72" d="M 2631 2963 
Q 2534 3019 2420 3045 
Q 2306 3072 2169 3072 
Q 1681 3072 1420 2755 
Q 1159 2438 1159 1844 
L 1159 0 
L 581 0 
L 581 3500 
L 1159 3500 
L 1159 2956 
Q 1341 3275 1631 3429 
Q 1922 3584 2338 3584 
Q 2397 3584 2469 3576 
Q 2541 3569 2628 3553 
L 2631 2963 
z
" transform="scale(0.015625)"/>
       <path id="DejaVuSans-6f" d="M 1959 3097 
Q 1497 3097 1228 2736 
Q 959 2375 959 1747 
Q 959 1119 1226 758 
Q 1494 397 1959 397 
Q 2419 397 2687 759 
Q 2956 1122 2956 1747 
Q 2956 2369 2687 2733 
Q 2419 3097 1959 3097 
z
M 1959 3584 
Q 2709 3584 3137 3096 
Q 3566 2609 3566 1747 
Q 3566 888 3137 398 
Q 2709 -91 1959 -91 
Q 1206 -91 779 398 
Q 353 888 353 1747 
Q 353 2609 779 3096 
Q 1206 3584 1959 3584 
z
" transform="scale(0.015625)"/>
       <path id="DejaVuSans-75" d="M 544 1381 
L 544 3500 
L 1119 3500 
L 1119 1403 
Q 1119 906 1312 657 
Q 1506 409 1894 409 
Q 2359 409 2629 706 
Q 2900 1003 2900 1516 
L 2900 3500 
L 3475 3500 
L 3475 0 
L 2900 0 
L 2900 538 
Q 2691 219 2414 64 
Q 2138 -91 1772 -91 
Q 1169 -91 856 284 
Q 544 659 544 1381 
z
M 1991 3584 
L 1991 3584 
z
" transform="scale(0.015625)"/>
       <path id="DejaVuSans-6e" d="M 3513 2113 
L 3513 0 
L 2938 0 
L 2938 2094 
Q 2938 2591 2744 2837 
Q 2550 3084 2163 3084 
Q 1697 3084 1428 2787 
Q 1159 2491 1159 1978 
L 1159 0 
L 581 0 
L 581 3500 
L 1159 3500 
L 1159 2956 
Q 1366 3272 1645 3428 
Q 1925 3584 2291 3584 
Q 2894 3584 3203 3211 
Q 3513 2838 3513 2113 
z
" transform="scale(0.015625)"/>
       <path id="DejaVuSans-64" d="M 2906 2969 
L 2906 4863 
L 3481 4863 
L 3481 0 
L 2906 0 
L 2906 525 
Q 2725 213 2448 61 
Q 2172 -91 1784 -91 
Q 1150 -91 751 415 
Q 353 922 353 1747 
Q 353 2572 751 3078 
Q 1150 3584 1784 3584 
Q 2172 3584 2448 3432 
Q 2725 3281 2906 2969 
z
M 947 1747 
Q 947 1113 1208 752 
Q 1469 391 1925 391 
Q 2381 391 2643 752 
Q 2906 1113 2906 1747 
Q 2906 2381 2643 2742 
Q 2381 3103 1925 3103 
Q 1469 3103 1208 2742 
Q 947 2381 947 1747 
z
" transform="scale(0.015625)"/>
       <path id="DejaVuSans-20" transform="scale(0.015625)"/>
       <path id="DejaVuSans-74" d="M 1172 4494 
L 1172 3500 
L 2356 3500 
L 2356 3053 
L 1172 3053 
L 1172 1153 
Q 1172 725 1289 603 
Q 1406 481 1766 481 
L 2356 481 
L 2356 0 
L 1766 0 
Q 1100 0 847 248 
Q 594 497 594 1153 
L 594 3053 
L 172 3053 
L 172 3500 
L 594 3500 
L 594 4494 
L 1172 4494 
z
" transform="scale(0.015625)"/>
       <path id="DejaVuSans-68" d="M 3513 2113 
L 3513 0 
L 2938 0 
L 2938 2094 
Q 2938 2591 2744 2837 
Q 2550 3084 2163 3084 
Q 1697 3084 1428 2787 
Q 1159 2491 1159 1978 
L 1159 0 
L 581 0 
L 581 4863 
L 1159 4863 
L 1159 2956 
Q 1366 3272 1645 3428 
Q 1925 3584 2291 3584 
Q 2894 3584 3203 3211 
Q 3513 2838 3513 2113 
z
" transform="scale(0.015625)"/>
      </defs>
      <use xlink:href="#DejaVuSans-47"/>
      <use xlink:href="#DejaVuSans-72" x="77.490234"/>
      <use xlink:href="#DejaVuSans-6f" x="116.353516"/>
      <use xlink:href="#DejaVuSans-75" x="177.535156"/>
      <use xlink:href="#DejaVuSans-6e" x="240.914062"/>
      <use xlink:href="#DejaVuSans-64" x="304.292969"/>
      <use xlink:href="#DejaVuSans-20" x="367.769531"/>
      <use xlink:href="#DejaVuSans-74" x="399.556641"/>
      <use xlink:href="#DejaVuSans-72" x="438.765625"/>
      <use xlink:href="#DejaVuSans-75" x="479.878906"/>
      <use xlink:href="#DejaVuSans-74" x="543.257812"/>
      <use xlink:href="#DejaVuSans-68" x="582.466797"/>
     </g>
    </g>
    <g id="PathCollection_2">
     <g>
      <use xlink:href="#m4cefc6de00" x="304.021563" y="35.851562" style="fill: #0000ff; stroke: #0000ff"/>
     </g>
    </g>
    <g id="text_15">
     <!-- Data -->
     <g transform="translate(322.021563 38.476562) scale(0.1 -0.1)">
      <defs>
       <path id="DejaVuSans-44" d="M 1259 4147 
L 1259 519 
L 2022 519 
Q 2988 519 3436 956 
Q 3884 1394 3884 2338 
Q 3884 3275 3436 3711 
Q 2988 4147 2022 4147 
L 1259 4147 
z
M 628 4666 
L 1925 4666 
Q 3281 4666 3915 4102 
Q 4550 3538 4550 2338 
Q 4550 1131 3912 565 
Q 3275 0 1925 0 
L 628 0 
L 628 4666 
z
" transform="scale(0.015625)"/>
       <path id="DejaVuSans-61" d="M 2194 1759 
Q 1497 1759 1228 1600 
Q 959 1441 959 1056 
Q 959 750 1161 570 
Q 1363 391 1709 391 
Q 2188 391 2477 730 
Q 2766 1069 2766 1631 
L 2766 1759 
L 2194 1759 
z
M 3341 1997 
L 3341 0 
L 2766 0 
L 2766 531 
Q 2569 213 2275 61 
Q 1981 -91 1556 -91 
Q 1019 -91 701 211 
Q 384 513 384 1019 
Q 384 1609 779 1909 
Q 1175 2209 1959 2209 
L 2766 2209 
L 2766 2266 
Q 2766 2663 2505 2880 
Q 2244 3097 1772 3097 
Q 1472 3097 1187 3025 
Q 903 2953 641 2809 
L 641 3341 
Q 956 3463 1253 3523 
Q 1550 3584 1831 3584 
Q 2591 3584 2966 3190 
Q 3341 2797 3341 1997 
z
" transform="scale(0.015625)"/>
      </defs>
      <use xlink:href="#DejaVuSans-44"/>
      <use xlink:href="#DejaVuSans-61" x="77.001953"/>
      <use xlink:href="#DejaVuSans-74" x="138.28125"/>
      <use xlink:href="#DejaVuSans-61" x="177.490234"/>
     </g>
    </g>
   </g>
  </g>
 </g>
 <defs>
  <clipPath id="p6a9b4774b1">
   <rect x="38.482813" y="7.2" width="357.12" height="266.112"/>
  </clipPath>
 </defs>
</svg>